<mxfile host="app.diagrams.net" agent="Mozilla/5.0 (Windows NT 10.0; Win64; x64) AppleWebKit/537.36 (KHTML, like Gecko) Chrome/130.0.0.0 Safari/537.36" version="24.7.17">
  <diagram name="Page-1" id="kyUDu3gqsscVAH9lprD6">
    <mxGraphModel dx="1419" dy="1548" grid="1" gridSize="10" guides="1" tooltips="1" connect="1" arrows="1" fold="1" page="1" pageScale="1" pageWidth="827" pageHeight="1169" math="0" shadow="0">
      <root>
        <mxCell id="0" />
        <mxCell id="1" parent="0" />
        <mxCell id="LJCMflJT-ytQ2ns8LZpG-1" value="snf_spi_1.txt&lt;br&gt;(1000 Entry)" style="rounded=1;whiteSpace=wrap;html=1;" vertex="1" parent="1">
          <mxGeometry x="120" y="20" width="90" height="40" as="geometry" />
        </mxCell>
        <mxCell id="LJCMflJT-ytQ2ns8LZpG-2" value="snf_spi_2.txt&lt;br&gt;(1000 Entry)" style="rounded=1;whiteSpace=wrap;html=1;" vertex="1" parent="1">
          <mxGeometry x="120" y="90" width="90" height="40" as="geometry" />
        </mxCell>
        <mxCell id="LJCMflJT-ytQ2ns8LZpG-3" value="snf_spi_3.txt&lt;br&gt;(1000 Entry)" style="rounded=1;whiteSpace=wrap;html=1;" vertex="1" parent="1">
          <mxGeometry x="120" y="150" width="90" height="40" as="geometry" />
        </mxCell>
        <mxCell id="LJCMflJT-ytQ2ns8LZpG-4" value="snf_spi_4.txt&lt;div&gt;(1000 Entry)&lt;/div&gt;" style="rounded=1;whiteSpace=wrap;html=1;" vertex="1" parent="1">
          <mxGeometry x="120" y="210" width="90" height="40" as="geometry" />
        </mxCell>
        <mxCell id="LJCMflJT-ytQ2ns8LZpG-5" value="snf_spi_5.txt&lt;div&gt;(1000 Entry)&lt;/div&gt;" style="rounded=1;whiteSpace=wrap;html=1;" vertex="1" parent="1">
          <mxGeometry x="120" y="270" width="90" height="40" as="geometry" />
        </mxCell>
        <mxCell id="LJCMflJT-ytQ2ns8LZpG-14" value="Sniffing Driver&lt;br&gt;&lt;br&gt;Sample Data" style="rounded=1;whiteSpace=wrap;html=1;" vertex="1" parent="1">
          <mxGeometry x="-90" y="145" width="110" height="50" as="geometry" />
        </mxCell>
        <mxCell id="LJCMflJT-ytQ2ns8LZpG-15" value="" style="endArrow=classic;html=1;rounded=0;exitX=1;exitY=0.5;exitDx=0;exitDy=0;entryX=0;entryY=0.5;entryDx=0;entryDy=0;" edge="1" parent="1" source="LJCMflJT-ytQ2ns8LZpG-14" target="LJCMflJT-ytQ2ns8LZpG-1">
          <mxGeometry width="50" height="50" relative="1" as="geometry">
            <mxPoint x="90" y="200" as="sourcePoint" />
            <mxPoint x="140" y="150" as="targetPoint" />
          </mxGeometry>
        </mxCell>
        <mxCell id="LJCMflJT-ytQ2ns8LZpG-16" value="" style="endArrow=classic;html=1;rounded=0;entryX=0;entryY=0.5;entryDx=0;entryDy=0;" edge="1" parent="1" target="LJCMflJT-ytQ2ns8LZpG-2">
          <mxGeometry width="50" height="50" relative="1" as="geometry">
            <mxPoint x="20" y="170" as="sourcePoint" />
            <mxPoint x="130" y="50" as="targetPoint" />
          </mxGeometry>
        </mxCell>
        <mxCell id="LJCMflJT-ytQ2ns8LZpG-17" value="" style="endArrow=classic;html=1;rounded=0;entryX=0;entryY=0.5;entryDx=0;entryDy=0;" edge="1" parent="1" target="LJCMflJT-ytQ2ns8LZpG-3">
          <mxGeometry width="50" height="50" relative="1" as="geometry">
            <mxPoint x="20" y="170" as="sourcePoint" />
            <mxPoint x="130" y="120" as="targetPoint" />
          </mxGeometry>
        </mxCell>
        <mxCell id="LJCMflJT-ytQ2ns8LZpG-18" value="" style="endArrow=classic;html=1;rounded=0;entryX=0;entryY=0.5;entryDx=0;entryDy=0;" edge="1" parent="1" target="LJCMflJT-ytQ2ns8LZpG-4">
          <mxGeometry width="50" height="50" relative="1" as="geometry">
            <mxPoint x="20" y="170" as="sourcePoint" />
            <mxPoint x="140" y="130" as="targetPoint" />
          </mxGeometry>
        </mxCell>
        <mxCell id="LJCMflJT-ytQ2ns8LZpG-19" value="" style="endArrow=classic;html=1;rounded=0;entryX=0;entryY=0.5;entryDx=0;entryDy=0;" edge="1" parent="1" target="LJCMflJT-ytQ2ns8LZpG-5">
          <mxGeometry width="50" height="50" relative="1" as="geometry">
            <mxPoint x="20" y="170" as="sourcePoint" />
            <mxPoint x="150" y="140" as="targetPoint" />
          </mxGeometry>
        </mxCell>
        <mxCell id="LJCMflJT-ytQ2ns8LZpG-20" value="" style="endArrow=classic;html=1;rounded=0;exitX=1;exitY=0.5;exitDx=0;exitDy=0;entryX=1;entryY=0.5;entryDx=0;entryDy=0;" edge="1" parent="1" source="LJCMflJT-ytQ2ns8LZpG-5" target="LJCMflJT-ytQ2ns8LZpG-1">
          <mxGeometry width="50" height="50" relative="1" as="geometry">
            <mxPoint x="310" y="270" as="sourcePoint" />
            <mxPoint x="240" y="130" as="targetPoint" />
            <Array as="points">
              <mxPoint x="280" y="290" />
              <mxPoint x="280" y="40" />
            </Array>
          </mxGeometry>
        </mxCell>
        <mxCell id="LJCMflJT-ytQ2ns8LZpG-21" value="Overflow" style="text;html=1;align=center;verticalAlign=middle;resizable=0;points=[];autosize=1;strokeColor=none;fillColor=none;" vertex="1" parent="1">
          <mxGeometry x="275" y="168" width="70" height="30" as="geometry" />
        </mxCell>
        <mxCell id="LJCMflJT-ytQ2ns8LZpG-22" value="Erase and Write" style="text;html=1;align=center;verticalAlign=middle;resizable=0;points=[];autosize=1;strokeColor=none;fillColor=none;" vertex="1" parent="1">
          <mxGeometry x="210" y="10" width="110" height="30" as="geometry" />
        </mxCell>
        <mxCell id="LJCMflJT-ytQ2ns8LZpG-24" value="" style="endArrow=classic;html=1;rounded=0;exitX=0;exitY=0.5;exitDx=0;exitDy=0;entryX=0.5;entryY=0;entryDx=0;entryDy=0;" edge="1" parent="1" source="LJCMflJT-ytQ2ns8LZpG-36" target="LJCMflJT-ytQ2ns8LZpG-14">
          <mxGeometry width="50" height="50" relative="1" as="geometry">
            <mxPoint x="-35" y="90" as="sourcePoint" />
            <mxPoint x="180" y="140" as="targetPoint" />
            <Array as="points">
              <mxPoint x="-35" y="-40" />
            </Array>
          </mxGeometry>
        </mxCell>
        <mxCell id="LJCMflJT-ytQ2ns8LZpG-25" value="Sniffing App" style="rounded=1;whiteSpace=wrap;html=1;" vertex="1" parent="1">
          <mxGeometry x="380" y="140" width="120" height="60" as="geometry" />
        </mxCell>
        <mxCell id="LJCMflJT-ytQ2ns8LZpG-26" value="Data with Time Stamp" style="text;html=1;align=center;verticalAlign=middle;resizable=0;points=[];autosize=1;strokeColor=none;fillColor=none;" vertex="1" parent="1">
          <mxGeometry x="-30" y="260" width="140" height="30" as="geometry" />
        </mxCell>
        <mxCell id="LJCMflJT-ytQ2ns8LZpG-27" value="" style="endArrow=classic;html=1;rounded=0;exitX=1;exitY=0.75;exitDx=0;exitDy=0;entryX=0;entryY=0.5;entryDx=0;entryDy=0;" edge="1" parent="1" source="LJCMflJT-ytQ2ns8LZpG-1" target="LJCMflJT-ytQ2ns8LZpG-25">
          <mxGeometry width="50" height="50" relative="1" as="geometry">
            <mxPoint x="200" y="190" as="sourcePoint" />
            <mxPoint x="250" y="140" as="targetPoint" />
          </mxGeometry>
        </mxCell>
        <mxCell id="LJCMflJT-ytQ2ns8LZpG-29" value="" style="endArrow=classic;html=1;rounded=0;exitX=1;exitY=0.5;exitDx=0;exitDy=0;" edge="1" parent="1" source="LJCMflJT-ytQ2ns8LZpG-2">
          <mxGeometry width="50" height="50" relative="1" as="geometry">
            <mxPoint x="223" y="54" as="sourcePoint" />
            <mxPoint x="380" y="170" as="targetPoint" />
          </mxGeometry>
        </mxCell>
        <mxCell id="LJCMflJT-ytQ2ns8LZpG-30" value="" style="endArrow=classic;html=1;rounded=0;exitX=1;exitY=0.5;exitDx=0;exitDy=0;" edge="1" parent="1" source="LJCMflJT-ytQ2ns8LZpG-3">
          <mxGeometry width="50" height="50" relative="1" as="geometry">
            <mxPoint x="220" y="120" as="sourcePoint" />
            <mxPoint x="380" y="170" as="targetPoint" />
          </mxGeometry>
        </mxCell>
        <mxCell id="LJCMflJT-ytQ2ns8LZpG-31" value="" style="endArrow=classic;html=1;rounded=0;exitX=1;exitY=0.5;exitDx=0;exitDy=0;" edge="1" parent="1" source="LJCMflJT-ytQ2ns8LZpG-4">
          <mxGeometry width="50" height="50" relative="1" as="geometry">
            <mxPoint x="230" y="130" as="sourcePoint" />
            <mxPoint x="378" y="170" as="targetPoint" />
          </mxGeometry>
        </mxCell>
        <mxCell id="LJCMflJT-ytQ2ns8LZpG-32" value="" style="endArrow=classic;html=1;rounded=0;exitX=1;exitY=0.5;exitDx=0;exitDy=0;" edge="1" parent="1" source="LJCMflJT-ytQ2ns8LZpG-5">
          <mxGeometry width="50" height="50" relative="1" as="geometry">
            <mxPoint x="240" y="140" as="sourcePoint" />
            <mxPoint x="380" y="170" as="targetPoint" />
          </mxGeometry>
        </mxCell>
        <mxCell id="LJCMflJT-ytQ2ns8LZpG-36" value="Input&lt;br&gt;&lt;br&gt;LUPA Shell&lt;br&gt;&lt;br&gt;[cmd: snf start/stop]" style="rounded=1;whiteSpace=wrap;html=1;" vertex="1" parent="1">
          <mxGeometry x="78" y="-80" width="174" height="80" as="geometry" />
        </mxCell>
        <mxCell id="LJCMflJT-ytQ2ns8LZpG-38" value="" style="endArrow=classic;html=1;rounded=0;exitX=0.5;exitY=1;exitDx=0;exitDy=0;entryX=1;entryY=0.5;entryDx=0;entryDy=0;" edge="1" parent="1" source="LJCMflJT-ytQ2ns8LZpG-25" target="LJCMflJT-ytQ2ns8LZpG-39">
          <mxGeometry width="50" height="50" relative="1" as="geometry">
            <mxPoint x="440" y="320" as="sourcePoint" />
            <mxPoint x="310" y="360" as="targetPoint" />
            <Array as="points">
              <mxPoint x="440" y="380" />
            </Array>
          </mxGeometry>
        </mxCell>
        <mxCell id="LJCMflJT-ytQ2ns8LZpG-39" value="Output&lt;br&gt;&lt;br&gt;Data Display in Terminal" style="rounded=1;whiteSpace=wrap;html=1;" vertex="1" parent="1">
          <mxGeometry x="78" y="340" width="174" height="80" as="geometry" />
        </mxCell>
        <mxCell id="LJCMflJT-ytQ2ns8LZpG-41" value="Data with Time Stamp" style="text;html=1;align=center;verticalAlign=middle;resizable=0;points=[];autosize=1;strokeColor=none;fillColor=none;" vertex="1" parent="1">
          <mxGeometry x="-20" y="30" width="140" height="30" as="geometry" />
        </mxCell>
      </root>
    </mxGraphModel>
  </diagram>
</mxfile>
